<?xml version="1.0" encoding="UTF-8"?>
<svg width="320px" height="60px" viewBox="0 0 320 60" version="1.1" xmlns="http://www.w3.org/2000/svg" xmlns:xlink="http://www.w3.org/1999/xlink">
    <!-- Generator: Sketch 61.2 (89653) - https://sketch.com -->
    <title>Logo Red - Standard</title>
    <desc>Created with Sketch.</desc>
    <defs>
        <radialGradient cx="100%" cy="50%" fx="100%" fy="50%" r="100%" gradientTransform="translate(1.000000,0.500000),scale(1.000000,0.579468),rotate(180.000000),translate(-1.000000,-0.500000)" id="radialGradient-1">
            <stop stop-color="#B20000" offset="0%"></stop>
            <stop stop-color="#FF243E" offset="100%"></stop>
        </radialGradient>
    </defs>
    <g id="Page-1" stroke="none" stroke-width="1" fill="none" fill-rule="evenodd">
        <g id="Brand" transform="translate(-200.000000, -1398.000000)">
            <g id="Logo-Red---Standard" transform="translate(200.000000, 1398.000000)">
                <g id="Logotype/Full/English" transform="translate(80.000000, 10.000000)" fill="#FF243E">
                    <path d="M57,0.000359258445 C64.7319865,0.000359258445 71,7.26837276 71,15.0003593 C71,22.7323458 64.7319865,30.0003593 57,30.0003593 L51,30.0003593 L51,39.0003593 C51,39.552644 50.5522847,40.0003593 50,40.0003593 L42,40.0003593 C41.4477153,40.0003593 41,39.552644 41,39.0003593 L41,4.00035926 C41,1.79122026 42.790861,0.000359258445 45,0.000359258445 L57,0.000359258445 Z M147.321,10 C147.873285,10 148.321,10.4477153 148.321,11 L148.321,39 C148.321,39.5522847 147.873285,40 147.321,40 L143.321,40 C141.941284,40 140.692091,39.4411626 139.787424,38.5374904 C137.829873,39.4752459 135.636718,40 133.321,40 C125.036729,40 118.321,33.2842712 118.321,25 C118.321,16.7157288 125.036729,10 133.321,10 C135.636718,10 137.829873,10.5247541 139.78804,11.4618371 C140.692091,10.5588374 141.941284,10 143.321,10 L147.321,10 Z M163.881966,0.000359258445 C165.262678,0.000359258445 166.381966,1.11964738 166.381966,2.50035926 L166.381,10.0003593 L175.381966,10.0003593 C175.934251,10.0003593 176.381966,10.4480745 176.381966,11.0003593 L176.381966,19.0003593 C176.381966,19.552644 175.934251,20.0003593 175.381966,20.0003593 L166.381,20.0003593 L166.381966,28.0003593 C166.381966,29.1049288 167.277397,30.0003593 168.381966,30.0003593 L175.381966,30.0003593 C175.934251,30.0003593 176.381966,30.4480745 176.381966,31.0003593 L176.381966,39.0003593 C176.381966,39.552644 175.934251,40.0003593 175.381966,40.0003593 L166.381966,40.0003593 C160.859119,40.0003593 156.381966,35.5232068 156.381966,30.0003593 L156.381,20.0003593 L153,20.0003593 C152.447715,20.0003593 152,19.552644 152,19.0003593 C152,18.8451142 152.036145,18.6920011 152.105573,18.5531457 L160.82918,1.10593207 C161.167964,0.428364011 161.86049,0.000359258445 162.618034,0.000359258445 L163.881966,0.000359258445 Z M216,0 C218.209139,0 220,1.790861 220,4 L220.000083,12.4990225 C222.08922,10.9298376 224.686022,10 227.5,10 C234.403559,10 240,15.5964406 240,22.5 L240,39 C240,39.5522847 239.552285,40 239,40 L231,40 C230.447715,40 230,39.5522847 230,39 L230,25 C230,22.2385763 227.761424,20 225,20 C222.311245,20 220.118182,22.1223067 220.00462,24.7831104 L220,25 L220,39 C220,39.5522847 219.552285,40 219,40 L211,40 C210.447715,40 210,39.5522847 210,39 L210,1 C210,0.44771525 210.447715,0 211,0 L216,0 Z M194.321,10.0003593 C199.117473,10.0003593 203.388133,12.2516346 206.133962,15.7551677 L206.353236,16.0419624 L206.353236,16.0419624 C206.743364,16.565102 206.635538,17.3054522 206.112398,17.6955807 C206.090045,17.7122505 206.067108,17.7281239 206.043636,17.7431768 L199.414428,21.9921388 C198.989605,22.2643777 198.428511,22.1775181 198.105919,21.789545 C197.811706,21.4357022 197.551819,21.1738364 197.326257,21.0039475 C196.489698,20.3738665 195.448968,20.0003593 194.321,20.0003593 C191.559576,20.0003593 189.321,22.2389355 189.321,25.0003593 C189.321,27.761783 191.559576,30.0003593 194.321,30.0003593 C195.436585,30.0003593 196.466838,29.6350074 197.298633,29.0174285 C197.531966,28.8441874 197.800897,28.5748941 198.105427,28.2095486 C198.428234,27.8222708 198.988855,27.7358674 199.413289,28.0079771 L205.988545,32.2234451 C206.565961,32.5936089 206.73395,33.3617794 206.363769,33.9391849 L206.337753,33.9781281 L206.337753,33.9781281 L206.310287,34.0160626 L206.310287,34.0160626 C203.572952,37.6504696 199.221399,40.0003593 194.321,40.0003593 C186.036729,40.0003593 179.321,33.2846305 179.321,25.0003593 C179.321,16.716088 186.036729,10.0003593 194.321,10.0003593 Z M20,0.000359258445 C26.9773003,0.000359258445 33.1201055,3.57325725 36.6986323,8.98926985 L36.9022285,9.30376469 L36.9022285,9.30376469 C37.4414521,10.1540377 37.1892967,11.2804472 36.3390237,11.8196708 C36.2869812,11.852675 36.2332987,11.883019 36.1781775,11.9105752 L29.7867524,15.1073639 C29.3213938,15.3401133 28.7553081,15.1771191 28.4849803,14.7325363 C28.2988536,14.426431 28.1375069,14.1824642 28.0009403,14.000636 C26.1765404,11.5715852 23.2717599,10.0003593 20,10.0003593 C14.4771525,10.0003593 10,14.4775118 10,20.0003593 C10,25.5232068 14.4771525,30.0003593 20,30.0003593 C23.2242788,30.0003593 26.0921523,28.474407 27.9208305,26.1052925 C28.0787504,25.9007019 28.2661797,25.6209006 28.4831185,25.2658887 C28.753986,24.8226961 29.3190601,24.6606337 29.7836311,24.8929322 L36.0016915,28.002136 C36.9896362,28.4961375 37.3900578,29.6974917 36.8960575,30.685437 C36.8630458,30.7514568 36.8264045,30.8155984 36.7863019,30.8775675 C36.7816693,30.8847261 36.7770652,30.891819 36.7724897,30.8988462 C33.2050082,36.3778845 27.0255412,40.0003593 20,40.0003593 C8.954305,40.0003593 0,31.0460543 0,20.0003593 C0,8.95466426 8.954305,0.000359258445 20,0.000359258445 Z M81.3923166,1.77635684e-14 C82.1068386,1.77635684e-14 82.7670856,0.381547363 83.1243546,1.00033694 L94.070873,15.9596988 L105.016655,1.00038549 C105.373916,0.381568554 106.034179,1.77635684e-14 106.748721,1.77635684e-14 L110.321,1.77635684e-14 C112.530139,1.77635684e-14 114.321,1.79122026 114.321,4.00035926 L114.321,39.0003593 C114.321,39.552644 113.873285,40.0003593 113.321,40.0003593 L105.321,40.0003593 C104.768715,40.0003593 104.321,39.552644 104.321,39.0003593 L104.321,21.9609771 C104.321,21.6848348 104.097142,21.4609771 103.821,21.4609771 C103.642723,21.4609771 103.477932,21.5559005 103.388486,21.710115 L94.9358618,32.2833635 C94.6587671,32.7611051 94.0468514,32.9237615 93.5691099,32.6466668 C93.4184459,32.5592802 93.2932186,32.4340578 93.2058261,32.2833972 L85.253504,22.573954 C85.1149474,22.3350886 84.8089864,22.2537723 84.570121,22.3923289 C84.415916,22.4817773 84.321,22.6465629 84.321,22.824833 L84.321,38.0039603 C84.321,39.1085298 83.3914958,40.0003593 82.2869263,40.0003593 L80,40.0003593 C79.6381746,39.9841093 79.2527901,39.7118575 79.0903931,39.3881156 L73.5518608,28.3234159 C73.2344852,27.6893868 73.2765258,26.9347144 73.6623539,26.3398558 C73.9667476,25.8705504 74.2029578,25.4846355 74.3709845,25.1821111 C76.0460282,22.1662725 77,18.6947219 77,15.0003593 C77,10.1572784 75.3605434,5.69711313 72.6063361,2.1445695 C72.491988,1.99707634 72.3567705,1.83171933 72.2006837,1.64849849 C71.8425231,1.2280885 71.8929958,0.596933112 72.3134112,0.238778914 C72.4943327,0.0846509408 72.7242347,1.7807228e-14 72.9619068,1.77635684e-14 L81.3923166,1.77635684e-14 Z M133.321,20 C130.559576,20 128.321,22.2385763 128.321,25 C128.321,27.7614237 130.559576,30 133.321,30 C136.082424,30 138.321,27.7614237 138.321,25 C138.321,22.2385763 136.082424,20 133.321,20 Z M56,10.0003593 L52,10.0003593 C51.4871642,10.0003593 51.0644928,10.3863994 51.0067277,10.8837381 L51,11.0003593 L51,19.0003593 C51,19.5131951 51.3860402,19.9358664 51.8833789,19.9936315 L52,20.0003593 L56,20.0003593 C58.7614237,20.0003593 61,17.761783 61,15.0003593 C61,12.3116046 58.8776933,10.1185411 56.2168896,10.0049788 L56,10.0003593 Z" id="Logotype"></path>
                </g>
                <g id="Logomark/Primary/Full-Color">
                    <path d="M25.2319266,54 L25.2319266,6 C25.2319266,2.6862915 27.9182181,6.08718376e-16 31.2319266,0 L37.4857495,0 C39.2295481,-2.98486586e-15 40.8870764,0.758644368 42.0268149,2.07842828 L52.9352667,14.7100966 C54.0181789,15.9640772 55.9126047,16.1027556 57.1665853,15.0198435 C57.271314,14.929402 57.3696597,14.8318228 57.4609181,14.7278051 L59.9340108,11.9089355 L59.9340108,11.9089355 L60,48.1418457 L57.5020474,45.2647151 C56.415821,44.0136043 54.5210348,43.8799392 53.2699241,44.9661656 C53.1619404,45.0599181 53.0607984,45.1612715 52.9672717,45.2694508 L42.0266506,57.9241026 C40.8869403,59.2423675 39.2304027,60 37.487772,60 L31.2319266,60 C27.9182181,60 25.2319266,57.3137085 25.2319266,54 Z" id="Path" fill="url(#radialGradient-1)" transform="translate(42.615963, 30.000000) scale(-1, 1) translate(-42.615963, -30.000000) "></path>
                    <path d="M7.10542736e-15,54 L7.10542736e-15,6 C6.69961511e-15,2.6862915 2.6862915,6.08718376e-16 6,0 L12.2589495,0 C13.9997873,1.45657011e-15 15.6548035,0.756080507 16.7944679,2.07201423 L38.4301259,27.0540107 C39.8946075,28.7450003 39.8946075,31.2549997 38.4301259,32.9459893 L16.7944679,57.9279858 C15.6548035,59.2439195 13.9997873,60 12.2589495,60 L6,60 C2.6862915,60 7.51123961e-15,57.3137085 7.10542736e-15,54 Z" id="Path" fill="#FF243E"></path>
                </g>
            </g>
        </g>
    </g>
</svg>